<svg width="30" height="30" viewBox="0 0 30 30" fill="none" xmlns="http://www.w3.org/2000/svg">
<path d="M4.15373 16.2637C4.59123 12.5112 5.23248 9.6975 5.82623 7.69875C6.31248 6.05875 6.55623 5.23875 7.55373 4.495C8.55123 3.75125 9.57123 3.75 11.6112 3.75H18.3887C20.4287 3.75 21.4487 3.75 22.4462 4.495C23.4437 5.23875 23.6875 6.05875 24.1737 7.69875C24.7675 9.6975 25.4075 12.5112 25.8462 16.2637C26.3612 20.6875 26.62 22.8988 25.1287 24.5738C23.6362 26.25 21.22 26.25 16.385 26.25H13.615C8.77998 26.25 6.36248 26.25 4.87123 24.575C3.37998 22.9 3.63873 20.6875 4.15373 16.2637Z" stroke="white" stroke-width="1.875" stroke-linecap="round" stroke-linejoin="round"/>
<path d="M11.25 8.75C11.25 9.74456 11.6451 10.6984 12.3483 11.4017C13.0516 12.1049 14.0054 12.5 15 12.5C15.9946 12.5 16.9484 12.1049 17.6517 11.4017C18.3549 10.6984 18.75 9.74456 18.75 8.75" stroke="white" stroke-width="1.875" stroke-linecap="round" stroke-linejoin="round"/>
</svg>
