<svg width="25" height="24" viewBox="0 0 25 24" fill="none" xmlns="http://www.w3.org/2000/svg">
<path d="M5.09284 0C3.74214 0 2.44675 0.534889 1.49166 1.487C0.536566 2.4391 0 3.73044 0 5.07692V18.9231C0 20.2696 0.536566 21.5609 1.49166 22.513C2.44675 23.4651 3.74214 24 5.09284 24H16.2045C16.5729 24 16.9262 23.8541 17.1866 23.5945C17.4471 23.3348 17.5935 22.9826 17.5935 22.6154C17.5935 22.2482 17.4471 21.896 17.1866 21.6363C16.9262 21.3766 16.5729 21.2308 16.2045 21.2308H5.09284C3.815 21.2308 2.77791 20.1969 2.77791 18.9231V5.07692C2.77791 3.80308 3.815 2.76923 5.09284 2.76923H16.2045C16.5729 2.76923 16.9262 2.62335 17.1866 2.36369C17.4471 2.10402 17.5935 1.75184 17.5935 1.38462C17.5935 1.01739 17.4471 0.66521 17.1866 0.405544C16.9262 0.145879 16.5729 0 16.2045 0H5.09284ZM19.501 5.94461C19.3738 5.80858 19.2205 5.69947 19.0501 5.62379C18.8797 5.54811 18.6958 5.50742 18.5093 5.50414C18.3228 5.50086 18.1375 5.53506 17.9646 5.6047C17.7916 5.67434 17.6345 5.77799 17.5026 5.90947C17.3707 6.04095 17.2668 6.19756 17.1969 6.36997C17.1271 6.54238 17.0927 6.72705 17.096 6.91296C17.0993 7.09888 17.1401 7.28223 17.2161 7.45207C17.292 7.62192 17.4014 7.77478 17.5379 7.90154L20.2603 10.6154H9.7227C9.35432 10.6154 9.00104 10.7613 8.74056 11.0209C8.48008 11.2806 8.33374 11.6328 8.33374 12C8.33374 12.3672 8.48008 12.7194 8.74056 12.9791C9.00104 13.2387 9.35432 13.3846 9.7227 13.3846H20.2603L17.5379 16.0985C17.4014 16.2252 17.292 16.3781 17.2161 16.5479C17.1401 16.7178 17.0993 16.9011 17.096 17.087C17.0927 17.2729 17.1271 17.4576 17.1969 17.63C17.2668 17.8024 17.3707 17.9591 17.5026 18.0905C17.6345 18.222 17.7916 18.3257 17.9646 18.3953C18.1375 18.4649 18.3228 18.4991 18.5093 18.4959C18.6958 18.4926 18.8797 18.4519 19.0501 18.3762C19.2205 18.3005 19.3738 18.1914 19.501 18.0554L24.5938 12.9785C24.8539 12.7188 25 12.3669 25 12C25 11.6331 24.8539 11.2812 24.5938 11.0215L19.501 5.94461Z" fill="#E22626"/>
</svg>
