<svg width="30" height="30" viewBox="0 0 30 30" fill="none" xmlns="http://www.w3.org/2000/svg">
<path d="M13.8779 1.62305C12.9384 3.3325 12.5 5.31144 12.5 7.41406L12.5039 7.73633C12.5464 9.34545 12.9089 10.931 13.5713 12.3926C14.2779 13.9519 15.31 15.3336 16.5967 16.4365C17.8835 17.5397 19.3931 18.336 21.0186 18.7637C22.5931 19.1779 24.2347 19.2342 25.832 18.9316C24.9885 21.5179 23.3957 23.7559 21.2842 25.3398C19.1566 26.9358 16.6092 27.7894 14.002 27.7891H14.001C7.1544 27.7888 1.50012 21.9898 1.5 14.7061C1.5 7.46514 7.08628 1.69148 13.8779 1.62305ZM26.0566 10.084L26.4375 10.3008L26.4883 10.3301L26.4365 10.3604L26.0557 10.5781L25.9004 10.8721L25.7461 10.5781L25.3643 10.3604L25.3115 10.3301L25.3643 10.3008L25.7461 10.084L25.9014 9.78613L26.0566 10.084ZM20.5371 3.2207L20.4746 3.25684L20.4121 3.2207L20.4746 3.18555L20.5371 3.2207Z" stroke="#111111" stroke-width="3"/>
</svg>
