<svg width="30" height="30" viewBox="0 0 30 30" fill="none" xmlns="http://www.w3.org/2000/svg">
<path d="M19.3816 2.0825L17.3824 3.22146L19.3816 4.36042L20.475 6.44292L21.5684 4.36042L23.5676 3.22146L21.5684 2.0825L20.4764 0L19.3816 2.0825ZM0 14.7058C0 6.65146 6.2678 0.1225 14 0.1225H16.4276L15.2124 2.31C14.4018 3.76833 14 5.50229 14 7.41417C13.9998 8.92152 14.32 10.4102 14.9378 11.7733C15.5555 13.1365 16.4553 14.3402 17.5727 15.298C18.69 16.2558 19.9971 16.944 21.4001 17.3132C22.8032 17.6823 24.2672 17.7232 25.6872 17.4329L28.042 16.956L27.2818 19.3273C26.3511 22.229 24.5678 24.7523 22.1845 26.5401C19.8011 28.3279 16.9384 29.2896 14.0014 29.2892C6.2692 29.2892 0 22.7602 0 14.7058ZM25.9014 6.5625L27.181 8.99792L29.5176 10.3308L27.1796 11.6637L25.9 14.0992L24.6218 11.6637L22.2838 10.3308L24.6218 8.99792L25.9014 6.5625Z" fill="white"/>
</svg>
